<svg width="207" height="48" viewBox="0 0 207 48" fill="none" xmlns="http://www.w3.org/2000/svg">
<circle cx="24" cy="24" r="7" fill="url(#paint0_linear_45_2809)" stroke="url(#paint1_linear_45_2809)" stroke-width="2"/>
<circle cx="24" cy="24" r="19" stroke="url(#paint2_linear_45_2809)" stroke-width="2"/>
<circle cx="24" cy="24" r="23" stroke="url(#paint3_linear_45_2809)" stroke-width="2"/>
<circle cx="24" cy="24" r="3" fill="url(#paint4_linear_45_2809)" stroke="url(#paint5_linear_45_2809)" stroke-width="2"/>
<path d="M66.2955 35.5V12.2273H81.4318V15.7614H70.5114V22.0795H80.6477V25.6136H70.5114V31.9659H81.5227V35.5H66.2955ZM101.142 18.0455L94.9261 35.5H90.3807L84.1648 18.0455H88.5511L92.5625 31.0114H92.7443L96.767 18.0455H101.142ZM111.122 35.8409C109.372 35.8409 107.861 35.4773 106.588 34.75C105.323 34.0152 104.349 32.9773 103.668 31.6364C102.986 30.2879 102.645 28.7008 102.645 26.875C102.645 25.0795 102.986 23.5038 103.668 22.1477C104.357 20.7841 105.319 19.7235 106.554 18.9659C107.789 18.2008 109.24 17.8182 110.906 17.8182C111.982 17.8182 112.997 17.9924 113.952 18.3409C114.914 18.6818 115.762 19.2121 116.497 19.9318C117.24 20.6515 117.823 21.5682 118.247 22.6818C118.671 23.7879 118.884 25.1061 118.884 26.6364V27.8977H104.577V25.125H114.94C114.933 24.3371 114.762 23.6364 114.429 23.0227C114.096 22.4015 113.63 21.9129 113.031 21.5568C112.44 21.2008 111.751 21.0227 110.963 21.0227C110.122 21.0227 109.384 21.2273 108.747 21.6364C108.111 22.0379 107.615 22.5682 107.259 23.2273C106.91 23.8788 106.732 24.5947 106.724 25.375V27.7955C106.724 28.8106 106.91 29.6818 107.281 30.4091C107.652 31.1288 108.171 31.6818 108.838 32.0682C109.505 32.447 110.285 32.6364 111.179 32.6364C111.777 32.6364 112.319 32.553 112.804 32.3864C113.289 32.2121 113.709 31.9583 114.065 31.625C114.421 31.2917 114.69 30.8788 114.872 30.3864L118.713 30.8182C118.471 31.8333 118.009 32.7197 117.327 33.4773C116.652 34.2273 115.789 34.8106 114.736 35.2273C113.683 35.6364 112.478 35.8409 111.122 35.8409ZM126.477 25.2727V35.5H122.364V18.0455H126.295V21.0114H126.5C126.902 20.0341 127.542 19.2576 128.42 18.6818C129.307 18.1061 130.402 17.8182 131.705 17.8182C132.909 17.8182 133.958 18.0758 134.852 18.5909C135.754 19.1061 136.451 19.8523 136.943 20.8295C137.443 21.8068 137.689 22.9924 137.682 24.3864V35.5H133.568V25.0227C133.568 23.8561 133.265 22.9432 132.659 22.2841C132.061 21.625 131.231 21.2955 130.17 21.2955C129.451 21.2955 128.811 21.4545 128.25 21.7727C127.697 22.0833 127.261 22.5341 126.943 23.125C126.633 23.7159 126.477 24.4318 126.477 25.2727ZM150.58 18.0455V21.2273H140.545V18.0455H150.58ZM143.023 13.8636H147.136V30.25C147.136 30.803 147.22 31.2273 147.386 31.5227C147.561 31.8106 147.788 32.0076 148.068 32.1136C148.348 32.2197 148.659 32.2727 149 32.2727C149.258 32.2727 149.492 32.2538 149.705 32.2159C149.924 32.178 150.091 32.1439 150.205 32.1136L150.898 35.3295C150.678 35.4053 150.364 35.4886 149.955 35.5795C149.553 35.6705 149.061 35.7235 148.477 35.7386C147.447 35.7689 146.519 35.6136 145.693 35.2727C144.867 34.9242 144.212 34.3864 143.727 33.6591C143.25 32.9318 143.015 32.0227 143.023 30.9318V13.8636ZM167.565 22.6591L163.815 23.0682C163.709 22.6894 163.524 22.3333 163.259 22C163.001 21.6667 162.652 21.3977 162.213 21.1932C161.774 20.9886 161.236 20.8864 160.599 20.8864C159.743 20.8864 159.024 21.072 158.44 21.4432C157.865 21.8144 157.58 22.2955 157.588 22.8864C157.58 23.3939 157.766 23.8068 158.145 24.125C158.531 24.4432 159.168 24.7045 160.054 24.9091L163.031 25.5455C164.683 25.9015 165.91 26.4659 166.713 27.2386C167.524 28.0114 167.933 29.0227 167.94 30.2727C167.933 31.3712 167.611 32.3409 166.974 33.1818C166.346 34.0152 165.471 34.6667 164.349 35.1364C163.228 35.6061 161.94 35.8409 160.486 35.8409C158.349 35.8409 156.63 35.3939 155.327 34.5C154.024 33.5985 153.247 32.3447 152.997 30.7386L157.009 30.3523C157.19 31.1402 157.577 31.7348 158.168 32.1364C158.759 32.5379 159.527 32.7386 160.474 32.7386C161.452 32.7386 162.236 32.5379 162.827 32.1364C163.425 31.7348 163.724 31.2386 163.724 30.6477C163.724 30.1477 163.531 29.7348 163.145 29.4091C162.766 29.0833 162.175 28.8333 161.372 28.6591L158.395 28.0341C156.721 27.6856 155.482 27.0985 154.679 26.2727C153.876 25.4394 153.478 24.3864 153.486 23.1136C153.478 22.0379 153.77 21.1061 154.361 20.3182C154.959 19.5227 155.789 18.9091 156.849 18.4773C157.918 18.0379 159.149 17.8182 160.543 17.8182C162.588 17.8182 164.198 18.2538 165.372 19.125C166.554 19.9962 167.285 21.1742 167.565 22.6591ZM173.866 35.75C173.177 35.75 172.586 35.5076 172.094 35.0227C171.601 34.5379 171.359 33.947 171.366 33.25C171.359 32.5682 171.601 31.9848 172.094 31.5C172.586 31.0152 173.177 30.7727 173.866 30.7727C174.533 30.7727 175.113 31.0152 175.605 31.5C176.105 31.9848 176.359 32.5682 176.366 33.25C176.359 33.7121 176.238 34.1326 176.003 34.5114C175.776 34.8902 175.473 35.1932 175.094 35.4205C174.723 35.6402 174.313 35.75 173.866 35.75ZM180.614 35.5V18.0455H184.727V35.5H180.614ZM182.682 15.5682C182.03 15.5682 181.47 15.3523 181 14.9205C180.53 14.4811 180.295 13.9545 180.295 13.3409C180.295 12.7197 180.53 12.1932 181 11.7614C181.47 11.322 182.03 11.1023 182.682 11.1023C183.341 11.1023 183.902 11.322 184.364 11.7614C184.833 12.1932 185.068 12.7197 185.068 13.3409C185.068 13.9545 184.833 14.4811 184.364 14.9205C183.902 15.3523 183.341 15.5682 182.682 15.5682ZM196.571 35.8409C194.866 35.8409 193.389 35.4659 192.139 34.7159C190.889 33.9659 189.92 32.9167 189.23 31.5682C188.548 30.2197 188.207 28.6439 188.207 26.8409C188.207 25.0379 188.548 23.4583 189.23 22.1023C189.92 20.7462 190.889 19.6932 192.139 18.9432C193.389 18.1932 194.866 17.8182 196.571 17.8182C198.276 17.8182 199.753 18.1932 201.003 18.9432C202.253 19.6932 203.219 20.7462 203.901 22.1023C204.59 23.4583 204.935 25.0379 204.935 26.8409C204.935 28.6439 204.59 30.2197 203.901 31.5682C203.219 32.9167 202.253 33.9659 201.003 34.7159C199.753 35.4659 198.276 35.8409 196.571 35.8409ZM196.594 32.5455C197.518 32.5455 198.291 32.2917 198.912 31.7841C199.533 31.2689 199.995 30.5795 200.298 29.7159C200.609 28.8523 200.764 27.8902 200.764 26.8295C200.764 25.7614 200.609 24.7955 200.298 23.9318C199.995 23.0606 199.533 22.3674 198.912 21.8523C198.291 21.3371 197.518 21.0795 196.594 21.0795C195.647 21.0795 194.859 21.3371 194.23 21.8523C193.609 22.3674 193.143 23.0606 192.832 23.9318C192.529 24.7955 192.378 25.7614 192.378 26.8295C192.378 27.8902 192.529 28.8523 192.832 29.7159C193.143 30.5795 193.609 31.2689 194.23 31.7841C194.859 32.2917 195.647 32.5455 196.594 32.5455Z" fill="url(#paint6_linear_45_2809)"/>
<defs>
<linearGradient id="paint0_linear_45_2809" x1="10.0132" y1="-1.75" x2="36.564" y2="37.1161" gradientUnits="userSpaceOnUse">
<stop stop-color="#EC1B6C"/>
<stop offset="1" stop-color="#F7931A"/>
</linearGradient>
<linearGradient id="paint1_linear_45_2809" x1="10.0132" y1="-1.75" x2="36.564" y2="37.1161" gradientUnits="userSpaceOnUse">
<stop stop-color="#EC1B6C"/>
<stop offset="1" stop-color="#F7931A"/>
</linearGradient>
<linearGradient id="paint2_linear_45_2809" x1="-10.9669" y1="-40.375" x2="55.41" y2="56.7902" gradientUnits="userSpaceOnUse">
<stop stop-color="#EC1B6C"/>
<stop offset="1" stop-color="#F7931A"/>
</linearGradient>
<linearGradient id="paint3_linear_45_2809" x1="-17.9603" y1="-53.25" x2="61.692" y2="63.3482" gradientUnits="userSpaceOnUse">
<stop stop-color="#EC1B6C"/>
<stop offset="1" stop-color="#F7931A"/>
</linearGradient>
<linearGradient id="paint4_linear_45_2809" x1="17.0066" y1="11.125" x2="30.282" y2="30.558" gradientUnits="userSpaceOnUse">
<stop stop-color="#EC1B6C"/>
<stop offset="1" stop-color="#F7931A"/>
</linearGradient>
<linearGradient id="paint5_linear_45_2809" x1="17.0066" y1="11.125" x2="30.282" y2="30.558" gradientUnits="userSpaceOnUse">
<stop stop-color="#EC1B6C"/>
<stop offset="1" stop-color="#F7931A"/>
</linearGradient>
<linearGradient id="paint6_linear_45_2809" x1="10.4934" y1="-38.7656" x2="35.512" y2="95.52" gradientUnits="userSpaceOnUse">
<stop stop-color="#EC1B6C"/>
<stop offset="1" stop-color="#F7931A"/>
</linearGradient>
</defs>
</svg>
