<svg width="24" height="24" viewBox="0 0 24 24" fill="none" xmlns="http://www.w3.org/2000/svg">
<mask id="mask0_62_12" style="mask-type:alpha" maskUnits="userSpaceOnUse" x="0" y="0" width="24" height="24">
<rect width="24" height="24" fill="#D9D9D9"/>
</mask>
<g mask="url(#mask0_62_12)">
<path d="M5.175 16H18.825L16.875 13.8L18.3 12.375L21 15.45V20C21 20.55 20.8043 21.021 20.413 21.413C20.021 21.8043 19.55 22 19 22H5C4.45 22 3.979 21.8043 3.587 21.413C3.19567 21.021 3 20.55 3 20V15.45L5.75 12.325L7.175 13.75L5.175 16ZM18.425 9.425L13.425 14.425C13.0417 14.8083 12.571 14.996 12.013 14.988C11.4543 14.9793 10.9833 14.7833 10.6 14.4L7.125 10.875C6.74167 10.4917 6.55 10.0167 6.55 9.45C6.55 8.88334 6.74167 8.40834 7.125 8.025L12.025 3.125C12.4083 2.74167 12.8833 2.55 13.45 2.55C14.0167 2.55 14.4917 2.74167 14.875 3.125L18.4 6.6C18.7833 6.98334 18.9793 7.454 18.988 8.012C18.996 8.57067 18.8083 9.04167 18.425 9.425ZM17 8L13.45 4.5L8.5 9.45L12.05 12.95L17 8Z" fill="white"/>
</g>
</svg>
